<svg xmlns="http://www.w3.org/2000/svg" viewBox="0 0 760 560" role="img">
  <defs>
    <linearGradient id="bg" x1="0" x2="1" y1="0" y2="1">
      <stop offset="0" stop-color="#fff8ec"/>
      <stop offset=".62" stop-color="#f4ead9"/>
      <stop offset="1" stop-color="#dfeadd"/>
    </linearGradient>
    <filter id="shadow" x="-20%" y="-20%" width="140%" height="140%">
      <feDropShadow dx="0" dy="18" stdDeviation="16" flood-color="#174b35" flood-opacity=".16"/>
    </filter>
  </defs>
  <rect x="24" y="24" width="712" height="512" rx="34" fill="url(#bg)"/>
  <circle cx="124" cy="130" r="78" fill="#d7ad55" opacity=".16"/>
  <path d="M496 150c42-34 88-39 139-15-49 33-95 38-139 15Z" fill="#357c74"/>
  <g filter="url(#shadow)">
    <ellipse cx="382" cy="426" rx="238" ry="42" fill="#c5ac82" opacity=".38"/>
    <rect x="142" y="250" width="476" height="122" rx="30" fill="#b8874d"/>
    <ellipse cx="380" cy="250" rx="238" ry="66" fill="#e9c48a"/>
    <path d="M160 250h440M196 210v118M260 192v154M326 184v166M392 184v166M458 192v154M524 210v118" stroke="#9f6a31" stroke-width="5" opacity=".28"/>
    <ellipse cx="250" cy="238" rx="66" ry="23" fill="#b45f3d" opacity=".82"/>
    <ellipse cx="382" cy="244" rx="76" ry="24" fill="#4b7d5a" opacity=".82"/>
    <ellipse cx="518" cy="235" rx="62" ry="22" fill="#d7ad55" opacity=".85"/>
    <path d="M194 178c46-40 96-46 150-18-52 37-102 43-150 18Z" fill="#4b7d5a"/>
  </g>
</svg>
