<svg xmlns="http://www.w3.org/2000/svg" viewBox="0 0 760 560" role="img">
  <defs>
    <linearGradient id="bg" x1="0" x2="1" y1="0" y2="1">
      <stop offset="0" stop-color="#fff8ec"/>
      <stop offset=".62" stop-color="#f3ead9"/>
      <stop offset="1" stop-color="#dfeadd"/>
    </linearGradient>
    <filter id="shadow" x="-20%" y="-20%" width="140%" height="140%">
      <feDropShadow dx="0" dy="18" stdDeviation="17" flood-color="#174b35" flood-opacity=".16"/>
    </filter>
  </defs>
  <rect x="24" y="24" width="712" height="512" rx="34" fill="url(#bg)"/>
  <circle cx="642" cy="130" r="88" fill="#d7ad55" opacity=".17"/>
  <g filter="url(#shadow)">
    <ellipse cx="380" cy="430" rx="252" ry="42" fill="#c5ac82" opacity=".38"/>
    <rect x="132" y="246" width="180" height="158" rx="12" fill="#d2a56a"/>
    <path d="M132 291h180M222 246v45" stroke="#8f5c2e" stroke-width="8" opacity=".35"/>
    <rect x="336" y="192" width="214" height="212" rx="14" fill="#e5c287"/>
    <path d="M336 250h214M444 192v58" stroke="#8f5c2e" stroke-width="8" opacity=".32"/>
    <path d="M552 282c62-5 92 27 88 92H506c-8-48 8-78 46-92Z" fill="#fffdf6"/>
    <path d="M526 318c36 13 68 13 94 0" stroke="#4b7d5a" stroke-width="10" stroke-linecap="round"/>
    <path d="M212 197c42-43 92-55 151-34-49 41-100 52-151 34Z" fill="#4b7d5a"/>
  </g>
</svg>
