<svg xmlns="http://www.w3.org/2000/svg" viewBox="0 0 760 560" role="img">
  <defs>
    <linearGradient id="bg" x1="0" x2="1" y1="0" y2="1">
      <stop offset="0" stop-color="#fff8ec"/>
      <stop offset=".62" stop-color="#f4ead9"/>
      <stop offset="1" stop-color="#dfeadd"/>
    </linearGradient>
    <filter id="shadow" x="-20%" y="-20%" width="140%" height="140%">
      <feDropShadow dx="0" dy="18" stdDeviation="16" flood-color="#174b35" flood-opacity=".16"/>
    </filter>
  </defs>
  <rect x="24" y="24" width="712" height="512" rx="34" fill="url(#bg)"/>
  <circle cx="130" cy="132" r="78" fill="#d7ad55" opacity=".16"/>
  <g filter="url(#shadow)">
    <ellipse cx="380" cy="430" rx="238" ry="42" fill="#c5ac82" opacity=".38"/>
    <path d="M174 210h272l70 72H234Z" fill="#efc785"/>
    <rect x="234" y="282" width="282" height="128" rx="15" fill="#d2a56a"/>
    <path d="M234 282h282M374 282v128" stroke="#8f5c2e" stroke-width="9" opacity=".32"/>
    <rect x="536" y="274" width="88" height="136" rx="14" fill="#fffdf6"/>
    <path d="M552 313c22 11 43 11 62 0" stroke="#4b7d5a" stroke-width="8" stroke-linecap="round"/>
    <rect x="154" y="316" width="90" height="94" rx="14" fill="#fffdf6"/>
    <path d="M169 352c20 10 40 10 60 0" stroke="#d7ad55" stroke-width="8" stroke-linecap="round"/>
    <path d="M428 177c45-36 94-41 146-14-51 33-100 38-146 14Z" fill="#357c74"/>
  </g>
</svg>
