<svg xmlns="http://www.w3.org/2000/svg" viewBox="0 0 760 560" role="img">
  <defs>
    <linearGradient id="bg" x1="0" x2="1" y1="0" y2="1">
      <stop offset="0" stop-color="#fff8ec"/>
      <stop offset=".64" stop-color="#f4ead9"/>
      <stop offset="1" stop-color="#dfeadd"/>
    </linearGradient>
    <filter id="shadow" x="-20%" y="-20%" width="140%" height="140%">
      <feDropShadow dx="0" dy="18" stdDeviation="16" flood-color="#174b35" flood-opacity=".16"/>
    </filter>
  </defs>
  <rect x="24" y="24" width="712" height="512" rx="34" fill="url(#bg)"/>
  <circle cx="126" cy="128" r="76" fill="#d7ad55" opacity=".16"/>
  <path d="M506 150c42-34 88-38 139-13-49 32-95 36-139 13Z" fill="#357c74"/>
  <g filter="url(#shadow)">
    <ellipse cx="380" cy="430" rx="246" ry="42" fill="#c5ac82" opacity=".38"/>
    <path d="M174 220h300l-34 140H208Z" fill="#174b35"/>
    <rect x="202" y="360" width="250" height="32" rx="12" fill="#fffdf6"/>
    <rect x="506" y="248" width="102" height="86" rx="22" fill="#fffdf6"/>
    <path d="M608 268h28a34 34 0 1 1 0 68h-28" fill="none" stroke="#fffdf6" stroke-width="16"/>
    <ellipse cx="557" cy="248" rx="51" ry="17" fill="#d7ad55"/>
    <rect x="462" y="342" width="166" height="58" rx="12" fill="#fffdf6"/>
    <circle cx="492" cy="371" r="14" fill="#c84d3e"/>
    <circle cx="532" cy="371" r="14" fill="#d7ad55"/>
    <circle cx="572" cy="371" r="14" fill="#4b7d5a"/>
    <path d="M178 194c45-42 96-50 153-25-53 39-104 47-153 25Z" fill="#4b7d5a"/>
  </g>
</svg>
