<svg xmlns="http://www.w3.org/2000/svg" viewBox="0 0 760 560" role="img">
  <defs>
    <linearGradient id="bg" x1="0" x2="1" y1="0" y2="1">
      <stop offset="0" stop-color="#fff8ec"/>
      <stop offset=".66" stop-color="#f4ead9"/>
      <stop offset="1" stop-color="#dfeadd"/>
    </linearGradient>
    <filter id="shadow" x="-20%" y="-20%" width="140%" height="140%">
      <feDropShadow dx="0" dy="18" stdDeviation="16" flood-color="#174b35" flood-opacity=".16"/>
    </filter>
  </defs>
  <rect x="24" y="24" width="712" height="512" rx="34" fill="url(#bg)"/>
  <circle cx="650" cy="120" r="88" fill="#d7ad55" opacity=".18"/>
  <path d="M140 218c47-49 101-61 162-35-56 44-110 56-162 35Z" fill="#4b7d5a"/>
  <g filter="url(#shadow)">
    <ellipse cx="380" cy="430" rx="238" ry="41" fill="#c5ac82" opacity=".38"/>
    <rect x="156" y="242" width="172" height="176" rx="16" fill="#fffdf6"/>
    <rect x="178" y="267" width="128" height="92" rx="12" fill="#174b35"/>
    <circle cx="242" cy="313" r="29" fill="#d7ad55"/>
    <path d="M242 284v58M213 313h58" stroke="#fff8ec" stroke-width="8" stroke-linecap="round"/>
    <rect x="374" y="180" width="232" height="238" rx="22" fill="#d7ad55"/>
    <rect x="410" y="232" width="160" height="116" rx="15" fill="#fff8ec" opacity=".9"/>
    <circle cx="462" cy="290" r="22" fill="#4b7d5a"/>
    <circle cx="514" cy="291" r="20" fill="#b45f3d"/>
    <path d="M374 220h232" stroke="#8d642a" stroke-width="9" opacity=".25"/>
    <path d="M492 180v238" stroke="#8d642a" stroke-width="9" opacity=".25"/>
  </g>
</svg>
