<svg xmlns="http://www.w3.org/2000/svg" viewBox="0 0 760 560" role="img">
  <defs>
    <linearGradient id="bg" x1="0" x2="1" y1="0" y2="1">
      <stop offset="0" stop-color="#fff8ec"/>
      <stop offset=".58" stop-color="#f4ead9"/>
      <stop offset="1" stop-color="#dfeadd"/>
    </linearGradient>
    <linearGradient id="green" x1="0" x2="1" y1="0" y2="1">
      <stop offset="0" stop-color="#5b9365"/>
      <stop offset="1" stop-color="#174b35"/>
    </linearGradient>
    <linearGradient id="tea" x1="0" x2="1" y1="0" y2="1">
      <stop offset="0" stop-color="#efcf83"/>
      <stop offset="1" stop-color="#b45f3d"/>
    </linearGradient>
    <filter id="shadow" x="-20%" y="-20%" width="140%" height="140%">
      <feDropShadow dx="0" dy="18" stdDeviation="18" flood-color="#174b35" flood-opacity=".18"/>
    </filter>
  </defs>
  <rect x="24" y="24" width="712" height="512" rx="34" fill="url(#bg)"/>
  <circle cx="640" cy="108" r="86" fill="#d7ad55" opacity=".2"/>
  <circle cx="115" cy="456" r="104" fill="#357c74" opacity=".14"/>
  <path d="M235 160c48-48 104-60 168-35-58 44-114 56-168 35Z" fill="url(#green)"/>
  <path d="M413 151c42-33 89-37 139-12-49 31-96 35-139 12Z" fill="#357c74"/>
  <g filter="url(#shadow)">
    <ellipse cx="364" cy="425" rx="248" ry="43" fill="#c5ac82" opacity=".42"/>
    <path d="M160 274h300v101c0 43-35 78-78 78H238c-43 0-78-35-78-78Z" fill="#174b35"/>
    <ellipse cx="310" cy="274" rx="150" ry="43" fill="#fffdf6"/>
    <ellipse cx="238" cy="262" rx="42" ry="18" fill="#b45f3d"/>
    <ellipse cx="304" cy="256" rx="48" ry="19" fill="#d7ad55"/>
    <ellipse cx="374" cy="264" rx="46" ry="18" fill="#4b7d5a"/>
    <circle cx="212" cy="250" r="18" fill="#c74d3d"/>
    <circle cx="260" cy="249" r="14" fill="#cf5a3e"/>
    <circle cx="286" cy="248" r="16" fill="#c74d3d"/>
    <path d="M503 252h88c38 0 69 31 69 69s-31 69-69 69h-88Z" fill="#fffdf6"/>
    <path d="M579 283h17a38 38 0 0 1 0 76h-17" fill="none" stroke="#174b35" stroke-width="18" stroke-linecap="round"/>
    <path d="M498 276h89v118h-89Z" fill="url(#tea)"/>
    <ellipse cx="542" cy="276" rx="45" ry="15" fill="#f6d99c"/>
    <path d="M155 199c35-40 78-51 130-34-43 39-86 50-130 34Z" fill="#4b7d5a"/>
  </g>
</svg>
