<svg xmlns="http://www.w3.org/2000/svg" viewBox="0 0 760 560" role="img">
  <defs>
    <linearGradient id="bg" x1="0" x2="1" y1="0" y2="1">
      <stop offset="0" stop-color="#fff8ec"/>
      <stop offset=".64" stop-color="#f4ead9"/>
      <stop offset="1" stop-color="#dfeadd"/>
    </linearGradient>
    <filter id="shadow" x="-20%" y="-20%" width="140%" height="140%">
      <feDropShadow dx="0" dy="18" stdDeviation="16" flood-color="#174b35" flood-opacity=".16"/>
    </filter>
  </defs>
  <rect x="24" y="24" width="712" height="512" rx="34" fill="url(#bg)"/>
  <circle cx="640" cy="114" r="86" fill="#d7ad55" opacity=".17"/>
  <g filter="url(#shadow)">
    <ellipse cx="380" cy="430" rx="250" ry="42" fill="#c5ac82" opacity=".38"/>
    <rect x="126" y="292" width="140" height="112" rx="12" fill="#d2a56a"/>
    <path d="M126 328h140M196 292v36" stroke="#8f5c2e" stroke-width="7" opacity=".34"/>
    <rect x="296" y="238" width="166" height="166" rx="13" fill="#e5c287"/>
    <path d="M296 286h166M380 238v48" stroke="#8f5c2e" stroke-width="7" opacity=".3"/>
    <rect x="492" y="292" width="142" height="112" rx="12" fill="#d2a56a"/>
    <path d="M492 328h142M562 292v36" stroke="#8f5c2e" stroke-width="7" opacity=".34"/>
    <path d="M222 220c46-47 98-58 157-32-54 41-106 52-157 32Z" fill="#4b7d5a"/>
    <circle cx="190" cy="255" r="20" fill="#c84d3e"/>
    <circle cx="538" cy="250" r="20" fill="#d7ad55"/>
    <circle cx="584" cy="250" r="18" fill="#4b7d5a"/>
  </g>
</svg>
