<svg xmlns="http://www.w3.org/2000/svg" viewBox="0 0 760 560" role="img">
  <defs>
    <linearGradient id="bg" x1="0" x2="1" y1="0" y2="1">
      <stop offset="0" stop-color="#fff8ec"/>
      <stop offset=".62" stop-color="#f4ead9"/>
      <stop offset="1" stop-color="#dfeadd"/>
    </linearGradient>
    <filter id="shadow" x="-20%" y="-20%" width="140%" height="140%">
      <feDropShadow dx="0" dy="18" stdDeviation="16" flood-color="#174b35" flood-opacity=".16"/>
    </filter>
  </defs>
  <rect x="24" y="24" width="712" height="512" rx="34" fill="url(#bg)"/>
  <circle cx="118" cy="116" r="78" fill="#d7ad55" opacity=".18"/>
  <path d="M482 148c43-34 90-38 141-12-50 31-97 35-141 12Z" fill="#357c74"/>
  <g filter="url(#shadow)">
    <ellipse cx="380" cy="430" rx="238" ry="42" fill="#c5ac82" opacity=".38"/>
    <rect x="178" y="188" width="184" height="230" rx="22" fill="#fffdf6"/>
    <rect x="213" y="250" width="116" height="104" rx="14" fill="#174b35"/>
    <circle cx="270" cy="302" r="28" fill="#d7ad55"/>
    <rect x="412" y="160" width="166" height="258" rx="24" fill="#d7ad55"/>
    <rect x="445" y="228" width="100" height="120" rx="14" fill="#fff8ec" opacity=".9"/>
    <circle cx="496" cy="289" r="24" fill="#4b7d5a"/>
    <path d="M146 386c36-45 83-59 140-42-44 45-91 59-140 42Z" fill="#4b7d5a"/>
    <rect x="304" y="364" width="180" height="48" rx="12" fill="#fff8ec"/>
    <circle cx="340" cy="388" r="14" fill="#b45f3d"/>
    <circle cx="383" cy="388" r="14" fill="#d7ad55"/>
  </g>
</svg>
