<svg xmlns="http://www.w3.org/2000/svg" viewBox="0 0 760 560" role="img">
  <defs>
    <linearGradient id="bg" x1="0" x2="1" y1="0" y2="1">
      <stop offset="0" stop-color="#fff8ec"/>
      <stop offset=".62" stop-color="#f4ead9"/>
      <stop offset="1" stop-color="#dfeadd"/>
    </linearGradient>
    <filter id="shadow" x="-20%" y="-20%" width="140%" height="140%">
      <feDropShadow dx="0" dy="18" stdDeviation="16" flood-color="#174b35" flood-opacity=".16"/>
    </filter>
  </defs>
  <rect x="24" y="24" width="712" height="512" rx="34" fill="url(#bg)"/>
  <circle cx="636" cy="120" r="88" fill="#d7ad55" opacity=".16"/>
  <g filter="url(#shadow)">
    <ellipse cx="380" cy="430" rx="238" ry="42" fill="#c5ac82" opacity=".38"/>
    <rect x="150" y="250" width="256" height="124" rx="28" fill="#fffdf6"/>
    <ellipse cx="278" cy="250" rx="128" ry="36" fill="#f0dfc5"/>
    <circle cx="222" cy="242" r="18" fill="#c84d3e"/>
    <circle cx="276" cy="239" r="18" fill="#d7ad55"/>
    <circle cx="334" cy="243" r="18" fill="#4b7d5a"/>
    <circle cx="505" cy="292" r="72" fill="#fffdf6"/>
    <circle cx="505" cy="292" r="43" fill="none" stroke="#174b35" stroke-width="12"/>
    <path d="M554 344l52 52" stroke="#174b35" stroke-width="18" stroke-linecap="round"/>
    <rect x="448" y="180" width="126" height="56" rx="14" fill="#d7ad55"/>
    <path d="M188 190c43-38 91-44 145-18-50 35-98 41-145 18Z" fill="#4b7d5a"/>
  </g>
</svg>
