<svg xmlns="http://www.w3.org/2000/svg" viewBox="0 0 760 560" role="img">
  <defs>
    <linearGradient id="bg" x1="0" x2="1" y1="0" y2="1">
      <stop offset="0" stop-color="#fff8ec"/>
      <stop offset=".64" stop-color="#f5ebda"/>
      <stop offset="1" stop-color="#e2eedf"/>
    </linearGradient>
    <filter id="shadow" x="-20%" y="-20%" width="140%" height="140%">
      <feDropShadow dx="0" dy="18" stdDeviation="16" flood-color="#174b35" flood-opacity=".15"/>
    </filter>
  </defs>
  <rect x="24" y="24" width="712" height="512" rx="34" fill="url(#bg)"/>
  <circle cx="128" cy="130" r="72" fill="#d7ad55" opacity=".18"/>
  <circle cx="630" cy="420" r="118" fill="#4b7d5a" opacity=".12"/>
  <g filter="url(#shadow)">
    <ellipse cx="380" cy="430" rx="250" ry="42" fill="#bfa477" opacity=".36"/>
    <path d="M128 268h188v74c0 43-35 78-78 78h-32c-43 0-78-35-78-78Z" fill="#fffdf6"/>
    <ellipse cx="222" cy="268" rx="94" ry="29" fill="#f0dfc5"/>
    <circle cx="190" cy="258" r="17" fill="#c84d3e"/>
    <circle cx="230" cy="255" r="19" fill="#d7ad55"/>
    <circle cx="264" cy="260" r="16" fill="#b45f3d"/>
    <path d="M330 220h190v118c0 42-34 76-76 76h-38c-42 0-76-34-76-76Z" fill="#174b35"/>
    <ellipse cx="425" cy="220" rx="95" ry="31" fill="#fffdf6"/>
    <ellipse cx="386" cy="212" rx="34" ry="14" fill="#d7ad55"/>
    <ellipse cx="430" cy="211" rx="36" ry="15" fill="#4b7d5a"/>
    <ellipse cx="472" cy="214" rx="31" ry="13" fill="#b45f3d"/>
    <path d="M501 278h134v63c0 41-33 74-74 74h-18c-41 0-74-33-74-74v-31c0-18 14-32 32-32Z" fill="#e6c184"/>
    <ellipse cx="552" cy="278" rx="83" ry="26" fill="#fff8ec"/>
    <circle cx="522" cy="270" r="15" fill="#d7ad55"/>
    <circle cx="560" cy="268" r="14" fill="#c84d3e"/>
    <circle cx="595" cy="272" r="16" fill="#4b7d5a"/>
  </g>
  <path d="M250 168c46-43 96-51 150-22-54 36-104 44-150 22Z" fill="#4b7d5a"/>
  <path d="M520 164c37-28 78-30 122-6-43 25-84 27-122 6Z" fill="#357c74"/>
</svg>
