<svg xmlns="http://www.w3.org/2000/svg" viewBox="0 0 760 560" role="img">
  <defs>
    <linearGradient id="bg" x1="0" x2="1" y1="0" y2="1">
      <stop offset="0" stop-color="#fff8ec"/>
      <stop offset=".62" stop-color="#eee5d8"/>
      <stop offset="1" stop-color="#dfeadd"/>
    </linearGradient>
    <filter id="shadow" x="-20%" y="-20%" width="140%" height="140%">
      <feDropShadow dx="0" dy="18" stdDeviation="16" flood-color="#174b35" flood-opacity=".16"/>
    </filter>
  </defs>
  <rect x="24" y="24" width="712" height="512" rx="34" fill="url(#bg)"/>
  <path d="M610 88a58 58 0 1 0 54 88 74 74 0 1 1-54-88Z" fill="#d7ad55" opacity=".7"/>
  <circle cx="132" cy="420" r="112" fill="#357c74" opacity=".12"/>
  <g filter="url(#shadow)">
    <ellipse cx="382" cy="426" rx="226" ry="40" fill="#c5ac82" opacity=".38"/>
    <path d="M246 242h222v78c0 63-51 114-114 114s-108-51-108-114Z" fill="#fffdf6"/>
    <ellipse cx="357" cy="242" rx="111" ry="34" fill="#d7ad55"/>
    <ellipse cx="357" cy="238" rx="78" ry="17" fill="#b45f3d" opacity=".7"/>
    <path d="M468 270h42c39 0 71 32 71 71s-32 71-71 71h-42v-33h42c21 0 38-17 38-38s-17-38-38-38h-42Z" fill="#fffdf6"/>
    <ellipse cx="205" cy="337" rx="50" ry="19" fill="#efe2cd"/>
    <ellipse cx="197" cy="328" rx="24" ry="10" fill="#f5f0e7"/>
    <ellipse cx="236" cy="333" rx="23" ry="10" fill="#f5f0e7"/>
    <circle cx="599" cy="285" r="18" fill="#d7ad55"/>
    <circle cx="626" cy="330" r="15" fill="#4b7d5a"/>
  </g>
  <path d="M176 212c49-49 104-60 166-33-57 43-112 54-166 33Z" fill="#4b7d5a"/>
  <path d="M420 180c40-32 84-36 132-13-47 31-91 35-132 13Z" fill="#357c74"/>
</svg>
