<svg xmlns="http://www.w3.org/2000/svg" viewBox="0 0 760 560" role="img">
  <defs>
    <linearGradient id="bg" x1="0" x2="1" y1="0" y2="1">
      <stop offset="0" stop-color="#fff8ec"/>
      <stop offset=".66" stop-color="#f1e4d1"/>
      <stop offset="1" stop-color="#dfeadd"/>
    </linearGradient>
    <filter id="shadow" x="-20%" y="-20%" width="140%" height="140%">
      <feDropShadow dx="0" dy="18" stdDeviation="17" flood-color="#174b35" flood-opacity=".16"/>
    </filter>
  </defs>
  <rect x="24" y="24" width="712" height="512" rx="34" fill="url(#bg)"/>
  <circle cx="642" cy="124" r="90" fill="#d7ad55" opacity=".18"/>
  <path d="M154 232c46-49 99-61 158-35-55 43-108 55-158 35Z" fill="#4b7d5a"/>
  <path d="M474 176c42-34 88-39 139-15-49 33-95 38-139 15Z" fill="#357c74"/>
  <g filter="url(#shadow)">
    <ellipse cx="382" cy="426" rx="232" ry="41" fill="#c5ac82" opacity=".38"/>
    <path d="M236 236h218v88c0 61-49 110-110 110s-108-49-108-110Z" fill="#fffdf6"/>
    <path d="M454 265h38c42 0 76 34 76 76s-34 76-76 76h-40v-34h40c23 0 42-19 42-42s-19-42-42-42h-38Z" fill="#fffdf6"/>
    <ellipse cx="345" cy="236" rx="109" ry="34" fill="#d7ad55"/>
    <ellipse cx="345" cy="232" rx="78" ry="18" fill="#b45f3d" opacity=".78"/>
    <circle cx="222" cy="320" r="22" fill="#d7ad55"/>
    <circle cx="186" cy="292" r="16" fill="#c84d3e"/>
    <circle cx="606" cy="269" r="18" fill="#b45f3d"/>
    <circle cx="632" cy="314" r="14" fill="#d7ad55"/>
    <path d="M255 198c14-39 42-58 84-57-18 39-46 58-84 57Z" fill="#4b7d5a"/>
  </g>
</svg>
