<svg xmlns="http://www.w3.org/2000/svg" viewBox="0 0 760 560" role="img">
  <defs>
    <linearGradient id="bg" x1="0" x2="1" y1="0" y2="1">
      <stop offset="0" stop-color="#fff8ec"/>
      <stop offset=".58" stop-color="#f4ead9"/>
      <stop offset="1" stop-color="#dfeadd"/>
    </linearGradient>
    <linearGradient id="drink" x1="0" x2="1" y1="0" y2="1">
      <stop offset="0" stop-color="#efcf83"/>
      <stop offset="1" stop-color="#b45f3d"/>
    </linearGradient>
    <filter id="shadow" x="-20%" y="-20%" width="140%" height="140%">
      <feDropShadow dx="0" dy="18" stdDeviation="18" flood-color="#174b35" flood-opacity=".16"/>
    </filter>
  </defs>
  <rect x="24" y="24" width="712" height="512" rx="34" fill="url(#bg)"/>
  <circle cx="138" cy="132" r="78" fill="#d7ad55" opacity=".18"/>
  <circle cx="628" cy="410" r="110" fill="#357c74" opacity=".12"/>
  <g filter="url(#shadow)">
    <ellipse cx="380" cy="430" rx="232" ry="42" fill="#c5ac82" opacity=".38"/>
    <rect x="232" y="174" width="102" height="258" rx="34" fill="#fffdf6"/>
    <rect x="254" y="126" width="58" height="70" rx="16" fill="#174b35"/>
    <rect x="247" y="266" width="72" height="90" rx="16" fill="url(#drink)"/>
    <rect x="368" y="150" width="118" height="282" rx="38" fill="#fffdf6"/>
    <rect x="394" y="100" width="66" height="74" rx="16" fill="#174b35"/>
    <rect x="390" y="259" width="74" height="102" rx="17" fill="#4b7d5a"/>
    <rect x="515" y="200" width="82" height="232" rx="30" fill="#fffdf6"/>
    <rect x="533" y="160" width="46" height="58" rx="14" fill="#174b35"/>
    <rect x="531" y="292" width="50" height="72" rx="14" fill="#d7ad55"/>
    <path d="M169 258c49-51 104-63 165-35-58 45-113 57-165 35Z" fill="#4b7d5a"/>
    <path d="M500 186c41-36 87-42 139-19-49 35-95 41-139 19Z" fill="#357c74"/>
  </g>
</svg>
